P2
# Une image pgm
15 7
15
0 0 0 0 0 0 0 0 0 0 0 0 0 0 0
0 0 3 0 0 7 7 7 0 0 15 0 0 15 0
0 0 3 0 0 7 0 0 0 0 15 15 0 15 0
0 0 3 0 0 7 7 7 0 0 15 0 15 15 0
0 0 3 0 0 0 0 7 0 0 15 0 0 15 0
0 0 3 0 0 7 7 7 0 0 15 0 0 15 0
0 0 0 0 0 0 0 0 0 0 0  0 0 0 0
